<svg xmlns="http://www.w3.org/2000/svg" width="416.981" height="308.211" viewBox="0 0 416.981 308.211">
  <g id="hat" transform="matrix(0.966, -0.259, 0.259, 0.966, -56.102, 1.928)" opacity="0.3">
    <g id="Group_2480" data-name="Group 2480">
      <g id="Group_2479" data-name="Group 2479">
        <path id="Path_7" data-name="Path 7" d="M114.2,263.02a392.724,392.724,0,0,0,88,8.84,392.725,392.725,0,0,0,88-8.84c25.44-6.16,41.16-16,41.16-27.68,0-118.64-37.32-147.28-74.68-147.28-24.88.04-48.92,13.16-62,20.28a69.088,69.088,0,0,1-6.92,3.56c-7.68,2.88-18.6,1.2-30.04-.56a153.419,153.419,0,0,0-24.68-2.44c-32.28.28-60.92,19.08-60,126.44C73.04,247.34,88.76,256.9,114.2,263.02Z" fill="none" stroke="#fff" stroke-width="2"/>
        <path id="Path_8" data-name="Path 8" d="M380.96,235.18a188.3,188.3,0,0,0-39.24-13.44v13.6c0,23.28-31.08,33.68-49.32,38.08a396.786,396.786,0,0,1-90.32,9.16,396.756,396.756,0,0,1-90.48-9.16c-18.24-4.4-49.52-14.8-49.52-38.08V221.78a188.036,188.036,0,0,0-39.16,13.44C8.24,242.62,0,251.58,0,261.82c0,16.68,24,30.8,62.44,40,36,8.64,85.08,14,139.36,14s103.84-5.32,139.64-13.84c38.6-9.32,62.44-23.44,62.44-40C403.88,251.58,395.68,242.58,380.96,235.18Z" fill="none" stroke="#fff" stroke-width="2"/>
      </g>
    </g>
  </g>
</svg>
