<svg xmlns="http://www.w3.org/2000/svg" xmlns:xlink="http://www.w3.org/1999/xlink" width="43.383" height="45.333" viewBox="0 0 43.383 45.333">
  <defs>
    <clipPath id="clip-path">
      <rect id="Rectangle_23" data-name="Rectangle 23" width="45.333" height="43.383" fill="#fff"/>
    </clipPath>
  </defs>
  <g id="Group_2429" data-name="Group 2429" transform="translate(43.383) rotate(90)">
    <g id="Group_2428" data-name="Group 2428" transform="translate(0 0)" clip-path="url(#clip-path)">
      <path id="Path_3" data-name="Path 3" d="M45.278,26.9c-1.789,5.442-3.206,11.034-6.188,16.029-.3.522-1.267.671-1.491,0a118.856,118.856,0,0,1-5.815-15.582.939.939,0,0,1,1.566-.895,35.666,35.666,0,0,0,4.026,3.5C37.226,18.928,37.6,6.1,24.478,2.675,18.662,1.184,12.176,2,7.33,5.732,2.261,9.683,1.142,16.169,1.515,22.208a.534.534,0,0,1-1.044.149C-2.436,8.863,8.523-1.649,21.942.215,28.578,1.109,34.169,4.241,37,10.578c2.535,5.666,2.386,12.45,2.237,18.638a24.787,24.787,0,0,1,4.622-3.28c.746-.447,1.715.149,1.417.969m-6.71,4.92a.668.668,0,0,1-.895-.447L37.6,31.3a11.833,11.833,0,0,1-3.206-1.64C35.511,33.316,37,36.895,38.419,40.4a71.121,71.121,0,0,0,4.324-11.481,17.53,17.53,0,0,1-4.175,2.908" transform="translate(0 0)" fill="#fff"/>
    </g>
  </g>
</svg>
