<svg xmlns="http://www.w3.org/2000/svg" width="306.066" height="253.521" viewBox="0 0 306.066 253.521">
  <g id="butcher-knife" transform="translate(1 -43.241)" opacity="0.5">
    <path id="Path_9" data-name="Path 9" d="M6.233,352.351a21.343,21.343,0,0,0,0,30.147l9.924,9.924a21.316,21.316,0,0,0,30.146,0l54.75-54.749L60.983,297.6Z" transform="translate(0 -102.904)" fill="none" stroke="#fff" stroke-width="2"/>
    <path id="Path_10" data-name="Path 10" d="M293.563,53.378a27.431,27.431,0,0,0-39.834-1.1L123.906,182.1l64.838,64.839a27.186,27.186,0,0,0,33.479,4c17.562-10.72,50.139-31.236,71-48.186,18.886-15.345,39.786-37.09,53.993-52.628a27.186,27.186,0,0,0,.2-36.587Zm-19.693,55.21a9.063,9.063,0,0,1-8.908-8.908c-.216-4.811,4.248-8.908,8.908-8.908a9.063,9.063,0,0,1,8.908,8.908C282.993,104.491,278.529,108.588,273.87,108.588Z" transform="translate(-50.325)" fill="none" stroke="#fff" stroke-width="2"/>
  </g>
</svg>
